<svg width="693" height="150" viewBox="0 0 693 150" fill="none" xmlns="http://www.w3.org/2000/svg">
<path d="M278.695 56.5063H301.471C297.675 32.2848 276.707 15.4141 249.412 15.4141C217.117 15.4141 192.896 39.1536 192.896 78.9203C192.896 117.964 216.033 142.186 250.075 142.186C280.623 142.186 302.495 122.543 302.495 90.7297V75.9076H252.425V93.3809H280.864C280.503 110.975 268.753 122.121 250.196 122.121C229.529 122.121 215.37 106.636 215.37 78.6792C215.37 50.9028 229.77 35.4782 249.714 35.4782C264.596 35.4782 274.718 43.4315 278.695 56.5063Z" fill="white"/>
<path d="M317.549 140.5H339.36V47.9519H317.549V140.5ZM328.515 33.2964C335.444 33.2964 341.107 27.9942 341.107 21.4869C341.107 14.9194 335.444 9.61719 328.515 9.61719C321.526 9.61719 315.861 14.9194 315.861 21.4869C315.861 27.9942 321.526 33.2964 328.515 33.2964Z" fill="white"/>
<path d="M404.673 47.9542H386.416V25.7812H364.605V47.9542H351.47V64.8249H364.605V116.281C364.485 133.694 377.137 142.249 393.526 141.767C399.732 141.587 404.01 140.382 406.36 139.598L402.686 122.547C401.48 122.848 399.01 123.39 396.298 123.39C390.815 123.39 386.416 121.462 386.416 112.665V64.8249H404.673V47.9542Z" fill="white"/>
<path d="M421.554 140.499H498.255V121.76H443.908V17.1016H421.554V140.499Z" fill="white"/>
<path d="M540.029 142.371C554.55 142.371 563.226 135.562 567.202 127.79H567.926V140.503H588.894V78.5634C588.894 54.1008 568.95 46.75 551.297 46.75C531.835 46.75 516.892 55.4264 512.072 72.2972L532.437 75.1893C534.607 68.8628 540.751 63.44 551.416 63.44C561.539 63.44 567.083 68.6217 567.083 77.7198V78.0813C567.083 84.3477 560.515 84.6489 544.187 86.3962C526.23 88.3244 509.06 93.6868 509.06 114.534C509.06 132.73 522.375 142.371 540.029 142.371ZM547.2 126.344C538.101 126.344 531.594 122.186 531.594 114.173C531.594 105.798 538.886 102.303 548.647 100.917C554.371 100.134 565.819 98.6877 568.65 96.3981V107.304C568.65 117.607 560.335 126.344 547.2 126.344Z" fill="white"/>
<path d="M604.982 140.499H626.432V125.918H627.697C631.132 132.666 638.302 142.125 654.209 142.125C676.02 142.125 692.348 124.833 692.348 94.3453C692.348 63.496 675.538 46.7458 654.148 46.7458C637.82 46.7458 631.011 56.567 627.697 63.255H626.794V17.1016H604.982V140.499ZM626.372 94.2248C626.372 76.2696 634.084 64.6408 648.122 64.6408C662.643 64.6408 670.115 76.9925 670.115 94.2248C670.115 111.578 662.524 124.231 648.122 124.231C634.204 124.231 626.372 112.18 626.372 94.2248Z" fill="white"/>
<path d="M153.133 59.3724L152.92 58.8142L131.721 3.50512C131.297 2.42153 130.535 1.50871 129.544 0.87824C128.555 0.24451 127.396 -0.0542903 126.221 0.00809968C125.052 0.0704897 123.929 0.497348 123.013 1.22631C122.103 1.96185 121.446 2.95678 121.138 4.07977L106.824 47.8864H48.9148L34.6015 4.07977C34.2929 2.95678 33.6362 1.96186 32.7266 1.22631C31.8104 0.497358 30.6875 0.0704897 29.5185 0.00809968C28.343 -0.0542903 27.1838 0.24451 26.1955 0.87824C25.2039 1.50871 24.442 2.42153 24.0185 3.50512L2.81954 58.8175L2.60605 59.3724C-3.67553 75.7576 1.67677 94.2805 15.665 104.86C15.6912 104.877 15.7142 104.896 15.7405 104.916L15.9277 105.057L48.2186 129.231L64.1901 141.321L73.9096 148.67C76.2508 150.443 79.4884 150.443 81.8297 148.67L91.5491 141.321L107.517 129.231L139.999 104.916C140.028 104.893 140.055 104.873 140.084 104.85C154.062 94.2706 159.411 75.7544 153.133 59.3724Z" fill="#E24329"/>
<path d="M153.133 59.3707L152.919 58.8125C142.402 60.9731 132.715 65.4224 124.421 71.6284C124.286 71.7269 99.2159 90.6865 77.8691 106.825C93.7191 118.811 107.517 129.229 107.517 129.229L139.998 104.914C140.028 104.891 140.054 104.872 140.084 104.849C154.062 94.2689 159.411 75.7526 153.133 59.3707Z" fill="#FC6D26"/>
<path d="M48.2188 129.232L64.1903 141.322L73.9098 148.671C76.2509 150.444 79.4886 150.444 81.8298 148.671L91.5492 141.322L107.517 129.232C107.517 129.232 93.7197 118.813 77.8698 106.828C62.0165 118.813 48.2188 129.232 48.2188 129.232Z" fill="#FCA326"/>
<path d="M31.3146 71.6329C23.0235 65.4302 13.3401 60.9776 2.81953 58.8203L2.60605 59.3752C-3.67553 75.7605 1.67675 94.2833 15.665 104.863C15.6912 104.879 15.7142 104.899 15.7405 104.919L15.9277 105.06L48.2186 129.234C48.2186 129.234 62.0163 118.815 77.8696 106.83C56.5229 90.691 31.4493 71.7315 31.3146 71.6329Z" fill="#FC6D26"/>
</svg>
