<svg width="416" height="95" viewBox="0 0 416 95" fill="none" xmlns="http://www.w3.org/2000/svg">
<g clip-path="url(#clip0_1786_2308)">
<mask id="mask0_1786_2308" style="mask-type:luminance" maskUnits="userSpaceOnUse" x="0" y="0" width="416" height="95">
<path d="M416 0H0V95H416V0Z" fill="white"/>
</mask>
<g mask="url(#mask0_1786_2308)">
<path d="M41.6396 69.3848C29.0068 67.8535 20.1064 58.7617 20.1064 46.9902C20.1064 42.2051 21.8291 37.0371 24.7002 33.5918C23.456 30.4336 23.6474 23.7344 25.083 20.959C28.9111 20.4805 34.0791 22.4902 37.1416 25.2656C40.7783 24.1172 44.6064 23.543 49.2959 23.543C53.9853 23.543 57.8134 24.1172 61.2587 25.1699C64.2255 22.4902 69.4892 20.4805 73.3173 20.959C74.6572 23.543 74.8486 30.2422 73.6044 33.4961C76.6669 37.1328 78.2939 42.0137 78.2939 46.9902C78.2939 58.7617 69.3935 67.6621 56.5693 69.2891C59.8232 71.3945 62.0244 75.9883 62.0244 81.252V91.2051C62.0244 94.0762 64.4169 95.7031 67.288 94.5547C84.6103 87.9512 98.2002 70.6289 98.2002 49.1914C98.2002 22.1074 76.1884 2.38639e-07 49.1044 0C22.0205 -2.38639e-07 0.200195 22.1074 0.200195 49.1914C0.200195 70.4375 13.6943 88.0469 31.8779 94.6504C34.4619 95.6074 36.9502 93.8848 36.9502 91.3008V83.6445C35.6103 84.2188 33.8877 84.6016 32.3564 84.6016C26.04 84.6016 22.3076 81.1563 19.6279 74.7441C18.5752 72.1602 17.4267 70.6289 15.2255 70.3418C14.0771 70.2461 13.6943 69.7676 13.6943 69.1934C13.6943 68.0449 15.6084 67.1836 17.5224 67.1836C20.2978 67.1836 22.6904 68.9063 25.1787 72.4473C27.0927 75.2227 29.1025 76.4668 31.4951 76.4668C33.8877 76.4668 35.4189 75.6055 37.6201 73.4043C39.247 71.7773 40.4912 70.3418 41.6396 69.3848Z" fill="white"/>
<mask id="mask1_1786_2308" style="mask-type:luminance" maskUnits="userSpaceOnUse" x="117" y="9" width="299" height="77">
<path d="M415.254 9.49219H117.186V85.433H415.254V9.49219Z" fill="white"/>
</mask>
<g mask="url(#mask1_1786_2308)">
<path d="M188.938 83.0047V33.2829H202.916V83.0047H188.938ZM230.017 83.0047C220.728 83.0047 217.1 79.0234 217.1 70.6185V44.9613H208.253V33.2829H217.1V23.3739L231.079 20.1004V33.2829H241.43V44.9613H231.079V67.5219C231.079 70.2646 232.318 71.3263 235.06 71.3263H241.43V83.0047H230.017ZM327.471 83.8894C316.589 83.8894 310.661 77.8733 310.661 66.9026V33.2829H324.729V63.1868C324.729 69.2914 327.471 72.6534 332.691 72.6534C338.707 72.6534 343.308 67.0796 343.308 59.4709V33.2829H357.375V83.0047H343.308V74.5998C340.654 79.9966 334.284 83.8894 327.471 83.8894ZM394.614 83.8894C387.833 83.8894 381.64 79.9966 378.688 74.4228V83.0047H364.71V13.6419H378.777V42.3956C381.64 36.3794 388.099 32.1327 394.614 32.1327C408.182 32.1327 415.349 41.5109 414.874 58.0553C415.349 74.4228 407.917 83.8894 394.614 83.8894ZM389.659 72.1225C396.946 72.1225 400.927 66.7257 400.453 58.0553C400.927 49.2965 396.946 43.8996 389.659 43.8996C383.852 43.8996 379.252 49.5619 378.777 57.3475V58.1438C379.252 66.1948 383.852 72.1225 389.659 72.1225ZM288.735 13.6419V41.7763H262.37V13.6419H247.33V83.0047H262.37V55.2242H288.735V83.0047H303.776V13.6419H288.735ZM150.629 84.3318C130.103 84.3318 117.186 70.2646 117.186 48.2348C117.186 26.205 130.369 12.3148 151.248 12.3148C168.235 12.3148 178.498 19.5695 181.771 31.7788L166.554 35.4062C164.696 28.7707 159.388 25.1433 151.248 25.1433C139.127 25.1433 132.58 33.1059 132.58 48.2348C132.58 63.3637 138.95 71.5032 150.894 71.5032C161.865 71.5032 168.412 64.7793 168.412 53.3662V50.7121L172.305 56.1089H149.656V43.3688H183.629V51.4198C183.629 72.5649 171.332 84.3318 150.629 84.3318ZM195.927 28.5938C200.616 28.5938 204.244 24.9664 204.244 20.2773C204.244 15.5883 200.616 11.9609 195.927 11.9609C191.238 11.9609 187.611 15.5883 187.611 20.2773C187.611 24.9664 191.238 28.5938 195.927 28.5938Z" fill="white"/>
</g>
</g>
</g>
<defs>
<clipPath id="clip0_1786_2308">
<rect width="416" height="95" fill="white"/>
</clipPath>
</defs>
</svg>
