<svg width="156" height="150" viewBox="0 0 156 150" fill="none" xmlns="http://www.w3.org/2000/svg">
<path d="M153.133 59.3724L152.92 58.8142L131.721 3.50512C131.297 2.42153 130.535 1.50871 129.544 0.87824C128.555 0.24451 127.396 -0.0542903 126.221 0.00809968C125.052 0.0704897 123.929 0.497348 123.013 1.22631C122.103 1.96185 121.446 2.95678 121.138 4.07977L106.824 47.8864H48.9148L34.6015 4.07977C34.2929 2.95678 33.6361 1.96186 32.7266 1.22631C31.8104 0.497358 30.6875 0.0704897 29.5185 0.00809968C28.343 -0.0542903 27.1838 0.24451 26.1955 0.87824C25.2038 1.50871 24.442 2.42153 24.0184 3.50512L2.81953 58.8175L2.60605 59.3724C-3.67553 75.7576 1.67677 94.2805 15.665 104.86C15.6912 104.877 15.7142 104.896 15.7405 104.916L15.9277 105.057L48.2186 129.231L64.1901 141.321L73.9096 148.67C76.2508 150.443 79.4884 150.443 81.8296 148.67L91.5491 141.321L107.517 129.231L139.999 104.916C140.028 104.893 140.055 104.873 140.084 104.85C154.062 94.2706 159.411 75.7544 153.133 59.3724Z" fill="#E24329"/>
<path d="M153.134 59.3707L152.92 58.8125C142.403 60.9731 132.716 65.4224 124.422 71.6284C124.287 71.7269 99.2169 90.6865 77.8701 106.825C93.7201 118.811 107.518 129.229 107.518 129.229L139.999 104.914C140.029 104.891 140.055 104.872 140.085 104.849C154.063 94.2689 159.412 75.7526 153.134 59.3707Z" fill="#FC6D26"/>
<path d="M48.2188 129.232L64.1903 141.322L73.9098 148.671C76.2509 150.444 79.4885 150.444 81.8298 148.671L91.5492 141.322L107.517 129.232C107.517 129.232 93.7197 118.813 77.8697 106.828C62.0165 118.813 48.2188 129.232 48.2188 129.232Z" fill="#FCA326"/>
<path d="M31.3146 71.6329C23.0235 65.4302 13.3401 60.9776 2.81953 58.8203L2.60605 59.3752C-3.67553 75.7605 1.67676 94.2833 15.665 104.863C15.6912 104.879 15.7142 104.899 15.7405 104.919L15.9277 105.06L48.2186 129.234C48.2186 129.234 62.0163 118.815 77.8696 106.83C56.5229 90.691 31.4493 71.7315 31.3146 71.6329Z" fill="#FC6D26"/>
</svg>
