<svg width="115" height="115" viewBox="0 0 115 115" fill="none" xmlns="http://www.w3.org/2000/svg">
<mask id="mask0_1528_4912" style="mask-type:alpha" maskUnits="userSpaceOnUse" x="0" y="0" width="115" height="115">
<circle cx="57.5" cy="57.5" r="57.5" fill="#D9D9D9"/>
</mask>
<g mask="url(#mask0_1528_4912)">
<path d="M0 0H115V11.5H0V0Z" fill="#00C900"/>
<path d="M0 11.5H115V23H0V11.5Z" fill="#00BE00"/>
<path d="M0 23H115V34.5H0V23Z" fill="#00B300"/>
<path d="M0 34.5H115V46H0V34.5Z" fill="#00A800"/>
<path d="M0 46H115V57.5H0V46Z" fill="#009D00"/>
<path d="M0 57.5H115V69H0V57.5Z" fill="#009200"/>
<path d="M0 69H115V80.5H0V69Z" fill="#008700"/>
<path d="M0 80.5H115V92H0V80.5Z" fill="#007C00"/>
<path d="M0 92H115V103.5H0V92Z" fill="#007100"/>
<path d="M0 103.5H115V115H0V103.5Z" fill="#006600"/>
<path d="M88.55 28.75H75.2429M86.3327 30.9673V35.403M86.3327 35.4044V53.1456M88.55 55.3648H75.2429M48.6287 50.9291H79.6787M79.6787 33.1852H39.7573M30.8857 42.0569H39.7571M35.3218 37.6217H44.1932M33.1035 44.2747V53.1456M33.1035 53.147V66.453M50.8466 53.147V66.453M50.8466 66.4544V75.3253M48.6287 77.542H57.5001M35.3218 77.5426H26.4504M33.1035 75.3253V66.4544M28.6679 79.7599V84.1956M55.2827 79.7599V84.1956M26.45 86.4143H57.5M81.8966 30.9673V53.1459M41.9748 39.8396V84.1967M46.4109 35.4044V84.1972M48.6287 81.9791H53.0644M30.8857 81.9791H35.3214M37.5391 84.197V44.2755M48.6287 37.6217H79.6787M48.6287 42.0569H79.6787M48.6287 46.492H79.6787" stroke="#F5F5F5" stroke-width="4.43571"/>
</g>
</svg>
