<svg width="917" height="310" viewBox="0 0 917 310" fill="none" xmlns="http://www.w3.org/2000/svg">
<rect width="917" height="310" rx="93" fill="#171717"/>
<path d="M335.4 202.68V125.4H348.14V112.66H387.62V125.4H400.5V164.6H387.62V177.34H349.54V202.68H335.4ZM349.54 163.2H386.22V126.8H349.54V163.2ZM409.097 202.68V112.66H423.237V202.68H409.097ZM444.538 202.68V190.08H431.798V138H445.938V188.68H482.618V138H496.898V190.08H484.018V202.68H444.538ZM508.229 202.68V138H547.849V150.74H559.049V138H586.069V150.74H598.669V202.68H584.669V152H560.449V202.68H546.449V152H522.369V202.68H508.229ZM619.959 202.68V190.08H607.219V112.66H621.359V138H659.439V150.74H672.319V190.08H659.439V202.68H619.959ZM621.359 188.68H658.039V152H621.359V188.68ZM693.656 202.68V190.08H680.916V150.74H693.656V138H733.136V150.74H746.016V164.6H731.736V152H695.056V163.2H720.536V177.34H695.056V188.68H731.736V175.8H746.016V189.94H733.136V202.68H693.656ZM757.347 202.68V150.74H770.087V138H809.567V150.74H822.447V164.6H808.167V152H771.487V202.68H757.347Z" fill="#F5F5F5"/>
<g clip-path="url(#clip0_1501_2137)">
<line x1="82" y1="99.1797" x2="284.723" y2="99.1797" stroke="#00D400" stroke-width="11"/>
<line x1="82" y1="109.316" x2="284.723" y2="109.316" stroke="#00D400" stroke-width="11"/>
<line x1="82" y1="89.043" x2="284.723" y2="89.043" stroke="#00DF00" stroke-width="11"/>
<line x1="82" y1="78.9102" x2="284.723" y2="78.9102" stroke="#00DF00" stroke-width="11"/>
<line x1="82" y1="68.7734" x2="284.723" y2="68.7734" stroke="#00EA00" stroke-width="11"/>
<line x1="82" y1="58.6367" x2="284.723" y2="58.6367" stroke="#00EA00" stroke-width="11"/>
<line x1="82" y1="119.453" x2="284.723" y2="119.453" stroke="#00C900" stroke-width="11"/>
<line x1="82" y1="129.59" x2="284.723" y2="129.59" stroke="#00C900" stroke-width="11"/>
<line x1="82" y1="139.727" x2="284.723" y2="139.727" stroke="#00BE00" stroke-width="11"/>
<line x1="82" y1="149.863" x2="284.723" y2="149.863" stroke="#00BE00" stroke-width="11"/>
<line x1="82" y1="159.996" x2="284.723" y2="159.996" stroke="#00B300" stroke-width="11"/>
<line x1="82" y1="170.133" x2="284.723" y2="170.133" stroke="#00B300" stroke-width="11"/>
<line x1="82" y1="180.27" x2="284.723" y2="180.27" stroke="#00A800" stroke-width="11"/>
<line x1="82" y1="190.406" x2="284.723" y2="190.406" stroke="#00A800" stroke-width="11"/>
<line x1="82" y1="200.543" x2="284.723" y2="200.543" stroke="#009D00" stroke-width="11"/>
<line x1="82" y1="210.68" x2="284.723" y2="210.68" stroke="#009D00" stroke-width="11"/>
<line x1="82" y1="220.816" x2="284.723" y2="220.816" stroke="#009200" stroke-width="11"/>
<line x1="82" y1="230.949" x2="284.723" y2="230.949" stroke="#009200" stroke-width="11"/>
<line x1="82" y1="241.086" x2="284.723" y2="241.086" stroke="#008700" stroke-width="11"/>
<line x1="82" y1="251.227" x2="284.723" y2="251.227" stroke="#008700" stroke-width="11"/>
<path d="M237 104.855H213.857M233.144 108.712V116.426M233.144 116.428V147.283M237 151.142H213.857M167.572 143.428H221.572M221.572 112.569H152.143M136.714 127.998H152.143M144.429 120.285H159.858M140.571 131.855V147.283M140.571 147.285V170.426M171.429 147.285V170.426M171.429 170.428V185.856M167.572 189.711H183M144.429 189.712H129.001M140.571 185.856V170.428M132.857 193.568V201.283M179.144 193.568V201.283M129 205.141H183M225.429 108.712V147.283M156 124.142V201.285M163.715 116.428V201.285M167.572 197.428H175.286M136.714 197.428H144.428M148.285 201.285V131.856M167.572 120.285H221.572M167.572 127.998H221.572M167.572 135.711H221.572" stroke="#F5F5F5" stroke-width="7.71429"/>
</g>
<defs>
<clipPath id="clip0_1501_2137">
<rect x="82" y="54" width="202.723" height="202.723" rx="101.362" fill="white"/>
</clipPath>
</defs>
</svg>
